HIERARCHY
ROOT Hips
{
	OFFSET 0.00000 0.00000 0.00000
	CHANNELS 6 Xposition Yposition Zposition Zrotation Yrotation Xrotation 
	JOINT LHipJoint
	{
		OFFSET 0 0 0
		CHANNELS 3 Zrotation Yrotation Xrotation
		JOINT LeftUpLeg
		{
			OFFSET 1.65674 -1.80282 0.62477
			CHANNELS 3 Zrotation Yrotation Xrotation
			JOINT LeftLeg
			{
				OFFSET 2.59720 -7.13576 0.00000
				CHANNELS 3 Zrotation Yrotation Xrotation
				JOINT LeftFoot
				{
					OFFSET 2.49236 -6.84770 0.00000
					CHANNELS 3 Zrotation Yrotation Xrotation
					JOINT LeftToeBase
					{
						OFFSET 0.19704 -0.54136 2.14581
						CHANNELS 3 Zrotation Yrotation Xrotation
						End Site
						{
							OFFSET 0.00000 -0.00000 1.11249
						}
					}
				}
			}
		}
	}
	JOINT RHipJoint
	{
		OFFSET 0 0 0
		CHANNELS 3 Zrotation Yrotation Xrotation
		JOINT RightUpLeg
		{
			OFFSET -1.61070 -1.80282 0.62476
			CHANNELS 3 Zrotation Yrotation Xrotation
			JOINT RightLeg
			{
				OFFSET -2.59502 -7.12977 0.00000
				CHANNELS 3 Zrotation Yrotation Xrotation
				JOINT RightFoot
				{
					OFFSET -2.46780 -6.78024 0.00000
					CHANNELS 3 Zrotation Yrotation Xrotation
					JOINT RightToeBase
					{
						OFFSET -0.23024 -0.63258 2.13368
						CHANNELS 3 Zrotation Yrotation Xrotation
						End Site
						{
							OFFSET -0.00000 -0.00000 1.11569
						}
					}
				}
			}
		}
	}
	JOINT LowerBack
	{
		OFFSET 0 0 0
		CHANNELS 3 Zrotation Yrotation Xrotation
		JOINT Spine
		{
			OFFSET 0.01961 2.05450 -0.14112
			CHANNELS 3 Zrotation Yrotation Xrotation
			JOINT Spine1
			{
				OFFSET 0.01021 2.06436 -0.05921
				CHANNELS 3 Zrotation Yrotation Xrotation
				JOINT Neck
				{
					OFFSET 0 0 0
					CHANNELS 3 Zrotation Yrotation Xrotation
					JOINT Neck1
					{
						OFFSET 0.00713 1.56711 0.14968
						CHANNELS 3 Zrotation Yrotation Xrotation
						JOINT Head
						{
							OFFSET 0.03429 1.56041 -0.10006
							CHANNELS 3 Zrotation Yrotation Xrotation
							End Site
							{
								OFFSET 0.01305 1.62560 -0.05265
							}
						}
					}
				}
				JOINT LeftShoulder
				{
					OFFSET 0 0 0
					CHANNELS 3 Zrotation Yrotation Xrotation
					JOINT LeftArm
					{
						OFFSET 3.54205 0.90436 -0.17364
						CHANNELS 3 Zrotation Yrotation Xrotation
						JOINT LeftForeArm
						{
							OFFSET 4.86513 -0.00000 -0.00000
							CHANNELS 3 Zrotation Yrotation Xrotation
							JOINT LeftHand
							{
								OFFSET 3.35554 -0.00000 0.00000
								CHANNELS 3 Zrotation Yrotation Xrotation
								JOINT LeftFingerBase
								{
									OFFSET 0 0 0
									CHANNELS 3 Zrotation Yrotation Xrotation
									JOINT LeftHandIndex1
									{
										OFFSET 0.66117 -0.00000 0.00000
										CHANNELS 3 Zrotation Yrotation Xrotation
										End Site
										{
											OFFSET 0.53306 -0.00000 0.00000
										}
									}
								}
								JOINT LThumb
								{
									OFFSET 0 0 0
									CHANNELS 3 Zrotation Yrotation Xrotation
									End Site
									{
										OFFSET 0.54120 -0.00000 0.54120
									}
								}
							}
						}
					}
				}
				JOINT RightShoulder
				{
					OFFSET 0 0 0
					CHANNELS 3 Zrotation Yrotation Xrotation
					JOINT RightArm
					{
						OFFSET -3.49802 0.75994 -0.32616
						CHANNELS 3 Zrotation Yrotation Xrotation
						JOINT RightForeArm
						{
							OFFSET -5.02649 -0.00000 0.00000
							CHANNELS 3 Zrotation Yrotation Xrotation
							JOINT RightHand
							{
								OFFSET -3.36431 -0.00000 0.00000
								CHANNELS 3 Zrotation Yrotation Xrotation
								JOINT RightFingerBase
								{
									OFFSET 0 0 0
									CHANNELS 3 Zrotation Yrotation Xrotation
									JOINT RightHandIndex1
									{
										OFFSET -0.73041 -0.00000 0.00000
										CHANNELS 3 Zrotation Yrotation Xrotation
										End Site
										{
											OFFSET -0.58887 -0.00000 0.00000
										}
									}
								}
								JOINT RThumb
								{
									OFFSET 0 0 0
									CHANNELS 3 Zrotation Yrotation Xrotation
									End Site
									{
										OFFSET -0.59786 -0.00000 0.59786
									}
								}
							}
						}
					}
				}
			}
		}
	}
}
MOTION
Frames: 10
Frame Time: 0.033333
10.9999 17.3454 0.5527 -0.9144 1.7061 18.0686 0.0000 0.0000 0.0000 -16.7485 -13.7493 -42.7322 7.1641 15.4685 49.4921 0.3690 4.6090 -14.1040 0.0002 -0.0960 -0.2639 0.0000 0.0000 0.0000 13.3907 21.2239 -41.4389 -7.2490 -15.5380 49.8098 -0.4011 -5.0225 -14.8680 -0.0047 0.4449 -1.2224 -0.7850 -1.0248 27.8211 0.1293 -1.5178 4.2513 1.1438 -0.6640 -10.6308 -0.2217 -0.3991 -18.3272 -0.4832 -0.6034 -19.8132 -0.1376 -0.2877 -3.5255 0.0000 0.0000 0.0000 -83.9690 4.2404 26.3562 22.2274 -33.2330 -6.7100 -0.0000 0.0000 -16.9692 26.5074 14.3833 7.0625 -7.1250 0.0000 -0.0000 -0.9334 45.9685 -0.0223 0.0000 0.0000 0.0000 84.7358 -8.4802 30.3433 -25.2765 36.4853 -8.4538 0.0000 -0.0000 -26.2216 -35.8580 20.1209 -13.9624 7.1250 -0.0000 -0.0000 -4.6641 -5.7233 -4.1900
10.9647 17.7383 0.6217 -0.9434 1.9636 17.7661 0.0000 0.0000 0.0000 -17.3699 -12.6167 -38.6433 5.3728 13.7917 42.4096 0.0953 5.8033 -10.5764 0.0101 -0.6496 -1.7853 0.0000 0.0000 0.0000 14.8494 19.2168 -37.6975 -5.5625 -13.9906 43.1997 -0.1027 -6.2533 -11.2387 -0.0018 0.2721 -0.7475 -0.8742 -1.0320 26.3004 0.2239 -1.5368 3.8404 1.2801 -0.6723 -10.3083 -0.5102 -0.3854 -18.2807 -0.1027 -0.4830 -18.6805 0.0395 -0.2155 -3.1119 -0.0000 0.0000 0.0000 -84.7004 6.2564 21.6554 22.1951 -33.1968 -6.6923 -0.0000 0.0000 -18.2219 26.4331 14.5593 7.1232 -7.1250 0.0000 -0.0000 -1.0283 46.1517 -0.0292 -0.0000 0.0000 0.0000 84.2330 -9.9779 29.1182 -24.3993 35.5837 -7.9377 0.0000 -0.0000 -25.8031 -35.6601 19.7718 -13.6429 7.1250 -0.0000 -0.0000 -4.6013 -6.1787 -4.0929
10.9377 18.0577 0.6905 -0.7585 2.2157 16.9556 0.0000 0.0000 0.0000 -18.2992 -11.2328 -34.4482 4.0256 12.1944 36.4230 -0.0691 6.6198 -7.4216 0.0153 -0.7980 -2.1931 0.0000 0.0000 0.0000 15.6120 17.7029 -33.5877 -4.2162 -12.4427 37.3166 0.0498 -6.8484 -8.4439 -0.0017 -0.2698 0.7413 -0.7701 -1.0250 25.1352 0.1470 -1.5057 3.4447 1.1036 -0.6657 -10.1525 -0.5737 -0.4081 -18.4375 -0.0731 -0.4827 -16.9986 0.0567 -0.2132 -2.4870 0.0000 -0.0000 0.0000 -84.6257 8.4586 19.0744 21.9006 -32.8645 -6.5318 -0.0000 0.0000 -19.0562 27.9722 13.3029 6.9671 -7.1250 0.0000 -0.0000 0.5730 44.9666 -0.0005 0.0000 -0.0000 0.0000 84.2460 -11.3622 27.3593 -23.4600 34.5880 -7.3978 0.0000 -0.0000 -24.7837 -35.3808 19.6949 -13.4596 7.1250 -0.0000 -0.0000 -4.4401 -6.3366 -3.9351
10.9069 18.2859 0.7631 -0.7755 2.2239 15.7326 0.0000 0.0000 0.0000 -18.8686 -9.8862 -30.2472 3.0004 10.6957 31.2605 -0.1547 7.3240 -5.1277 0.0863 -1.8948 -5.2150 0.0000 0.0000 0.0000 16.5829 16.3101 -29.4153 -3.2291 -11.0570 32.4723 0.1264 -6.9668 -5.7385 -0.0039 0.4032 -1.1077 -0.8449 -1.0277 23.9806 0.1697 -1.5254 2.9853 1.1592 -0.6735 -10.0558 -1.3020 -0.4872 -16.3443 0.7384 -0.4188 -16.8577 0.4479 -0.1493 -2.7517 0.0000 -0.0000 0.0000 -84.3348 10.8161 16.9342 21.4457 -32.3449 -6.2867 -0.0000 0.0000 -18.0628 28.7054 13.3597 7.2114 -7.1250 0.0000 -0.0000 1.2532 45.1267 0.0039 0.0000 -0.0000 0.0000 83.7682 -12.9899 26.8539 -23.1228 34.2229 -7.2073 0.0000 -0.0000 -24.6930 -34.8640 19.7404 -13.2413 7.1250 -0.0000 -0.0000 -4.1092 -6.4088 -3.6344
10.8672 18.4220 0.8093 -0.9347 3.2249 13.6759 0.0000 0.0000 0.0000 -19.0789 -9.1287 -25.9354 2.3548 9.5690 27.5921 -0.1936 7.7931 -3.4124 0.1197 -2.2309 -6.1441 0.0000 0.0000 0.0000 18.1404 14.4006 -24.8045 -2.5119 -9.8595 28.5229 0.1883 -7.8440 -4.6305 -0.0333 1.1776 -3.2377 -0.2655 -1.2816 22.9415 0.3083 -1.6890 3.2447 1.0006 -0.7788 -9.2210 -1.6662 -0.6715 -16.4476 1.3379 -0.5564 -15.3190 0.6900 -0.2072 -2.1989 -0.0000 0.0000 0.0000 -83.3955 11.1471 15.9469 20.5130 -31.2554 -5.7952 -0.0000 0.0000 -17.1420 27.6319 14.3460 7.3906 -7.1250 0.0000 -0.0000 0.1334 46.0819 0.0036 -0.0000 0.0000 0.0000 83.7265 -13.2805 25.7119 -22.5801 33.6264 -6.9043 0.0000 -0.0000 -23.8010 -35.1219 18.7279 -12.7261 7.1250 -0.0000 -0.0000 -4.4382 -7.5221 -3.8308
10.8251 18.4705 0.8423 -0.8459 3.2393 11.8417 0.0000 0.0000 0.0000 -19.5009 -8.7860 -22.5597 2.0302 8.9287 25.5726 -0.2867 9.4471 -3.8062 0.0161 -0.8199 -2.2534 0.0000 0.0000 0.0000 18.9254 13.8086 -20.8514 -1.9913 -8.8480 25.3210 0.2646 -9.1113 -4.2018 -0.0281 1.0814 -2.9727 -0.3229 -1.2217 21.9138 0.2251 -1.6365 3.0689 0.9038 -0.7583 -8.8690 -0.3482 -0.3111 -17.3977 0.0995 -0.3597 -12.4914 0.0739 -0.1678 -1.1247 0.0000 -0.0000 0.0000 -82.2828 11.9306 14.9899 19.7821 -30.3789 -5.4207 -0.0000 0.0000 -16.8865 26.9475 13.6100 6.8216 -7.1250 0.0000 -0.0000 -0.4191 45.1743 -0.0018 0.0000 -0.0000 0.0000 83.4481 -13.8708 25.6410 -22.6838 33.7412 -6.9618 0.0000 -0.0000 -24.3992 -34.7711 19.3091 -12.9294 7.1250 -0.0000 -0.0000 -4.1221 -6.9296 -3.6043
10.7878 18.4720 0.8674 -0.9574 3.6252 9.9666 0.0000 0.0000 0.0000 -19.7990 -7.9668 -19.9702 1.8683 8.5861 24.5090 -0.3037 9.7186 -3.3171 0.0274 -1.0685 -2.9373 0.0000 0.0000 0.0000 19.9900 12.6469 -17.5875 -1.6333 -8.0565 22.8858 0.3210 -10.0234 -4.6338 -0.0261 1.0433 -2.8679 -0.0381 -1.1833 20.8153 0.4453 -1.5041 2.9756 0.9188 -0.7061 -8.3855 -0.8154 -0.5351 -17.1317 0.1889 -0.5714 -11.0875 0.1682 -0.2566 -0.7087 0.0000 0.0000 0.0000 -81.5975 11.7630 14.1505 18.9936 -29.4108 -5.0277 -0.0000 0.0000 -15.8902 25.6161 13.7242 6.4896 -7.1250 0.0000 -0.0000 -1.6753 45.1276 -0.0053 0.0000 0.0000 0.0000 83.1580 -13.4977 24.8214 -22.0460 33.0289 -6.6109 0.0000 -0.0000 -23.4244 -33.7863 18.4876 -11.9788 7.1250 -0.0000 -0.0000 -3.6291 -8.1012 -3.0879
10.7355 18.4388 0.8559 -0.4990 3.8798 8.2153 0.0000 0.0000 0.0000 -20.5490 -7.2521 -17.3508 1.6642 8.1286 23.1053 -0.3214 9.9906 -3.7420 0.0000 -0.0091 -0.0249 0.0000 0.0000 0.0000 20.3343 11.1438 -15.5377 -1.5617 -7.8863 22.3693 0.3144 -9.9778 -5.1367 -0.0231 0.9809 -2.6963 -0.3812 -1.0111 19.9930 0.3935 -1.3620 2.6838 1.0056 -0.6303 -8.2566 -0.6659 -0.5150 -16.7653 -0.1855 -0.5784 -9.6332 0.0259 -0.2706 -0.2976 0.0000 0.0000 0.0000 -80.7032 11.4386 13.8156 18.7341 -29.0869 -4.9009 -0.0000 0.0000 -15.2446 24.8354 14.8341 6.7575 -7.1250 0.0000 -0.0000 -2.5772 46.2329 -0.0785 0.0000 0.0000 0.0000 83.2119 -13.4112 24.3804 -22.1268 33.1200 -6.6550 0.0000 -0.0000 -22.9790 -32.3658 17.8791 -11.0109 7.1250 -0.0000 -0.0000 -2.8092 -9.0972 -2.3326
10.6994 18.4090 0.8343 -0.2817 3.8523 6.3933 0.0000 0.0000 0.0000 -21.0055 -6.5179 -15.2627 1.6431 8.0795 22.9557 -0.3102 9.8919 -4.9370 0.0004 0.1247 0.3425 0.0000 0.0000 0.0000 20.6314 9.9638 -12.9002 -1.3835 -7.4425 21.0330 0.2667 -9.3128 -5.4771 -0.0019 0.2818 -0.7744 -0.3068 -0.9041 19.0127 0.2263 -1.2228 2.4819 0.7289 -0.5716 -7.9530 -1.0093 -0.5052 -16.5491 0.6131 -0.4841 -7.9915 0.3360 -0.2051 0.2058 -0.0000 -0.0000 0.0000 -79.3931 10.7473 14.7080 18.4648 -28.7482 -4.7707 -0.0000 0.0000 -16.4203 26.2484 13.5721 6.6008 -7.1250 0.0000 -0.0000 -1.0660 45.0420 -0.0011 -0.0000 -0.0000 0.0000 83.3560 -12.3999 24.7641 -21.8163 32.7688 -6.4861 0.0000 -0.0000 -22.8826 -32.2462 18.1606 -11.1240 7.1250 -0.0000 -0.0000 -2.6927 -8.8005 -2.2515
10.6572 18.3461 0.7787 0.2565 3.6481 4.6509 0.0000 0.0000 0.0000 -21.7478 -6.4757 -13.1469 1.6031 7.9853 22.6694 -0.3347 10.3992 -6.0354 0.0131 -0.7391 -2.0311 0.0000 0.0000 0.0000 20.5276 8.9129 -10.3286 -1.1797 -6.8936 19.4004 0.2202 -8.7015 -6.0247 -0.0001 0.0510 -0.1401 -0.6965 -0.8224 18.1816 0.0530 -1.2092 2.1506 0.7493 -0.5572 -7.8555 -1.3580 -0.4890 -15.8727 1.0240 -0.4137 -6.2286 0.5295 -0.1584 0.6764 0.0000 -0.0000 0.0000 -78.7645 9.9983 14.9920 18.5336 -28.8351 -4.8038 -0.0000 0.0000 -16.9710 26.7163 13.2001 6.5563 -7.1250 0.0000 -0.0000 -0.5843 44.6916 0.0044 0.0000 -0.0000 0.0000 83.1624 -11.1849 25.9697 -21.6492 32.5782 -6.3959 0.0000 -0.0000 -22.7428 -31.6789 17.0694 -10.2671 7.1250 -0.0000 -0.0000 -2.4754 -10.1543 -2.0021
